<svg width="800" height="233" viewBox="0 0 800 233" fill="none" xmlns="http://www.w3.org/2000/svg">
<g clip-path="url(#clip0_62_2)">
<path d="M487.811 54.1699C469.566 57.3774 451.189 59.8869 432.811 62.302C414.434 64.6982 396.038 66.9435 377.604 68.9246C359.189 70.9623 340.755 72.8869 322.302 74.7359C303.868 76.5661 285.415 78.4152 266.943 79.9812L266.623 80.0001L266.321 79.9246L216.679 66.3208L211.377 64.868L216.472 62.7737C233.755 55.6793 251 48.5472 268.453 41.7737C277.17 38.3963 285.943 35.1133 294.792 32.0378C303.66 29.0189 312.604 26.1888 321.679 23.7737C330.755 21.3586 339.906 19.2831 349.132 17.5472C358.359 15.8869 367.641 14.4529 376.924 13.302C395.566 10.9057 414.358 10.3208 433.075 10.4152C451.811 10.5472 470.509 11.6605 489.132 13.3397C498.453 14.1888 507.755 15.1888 517.038 16.434L520.528 16.9246C521.736 17.1133 522.906 17.3586 524.057 17.6227C526.358 18.151 528.623 18.7548 530.887 19.3774C535.415 20.6227 539.887 21.9435 544.358 23.3208C553.302 26.0755 562.189 28.9246 571.019 32.0189C575.434 33.5661 579.83 35.1321 584.208 36.8114C586.396 37.6416 588.566 38.5095 590.736 39.4152C591.811 39.868 592.887 40.3397 593.962 40.868C594.491 41.1322 595.019 41.3963 595.566 41.6982C595.83 41.8491 596.094 42.0189 596.358 42.2076C596.491 42.3019 596.623 42.4152 596.774 42.5661C596.849 42.6604 596.925 42.7359 597 42.8491C597.057 42.9435 597.094 43.0378 597.113 43.1321C597.151 43.2076 597.17 43.3208 597.132 43.5095C597.038 43.9246 596.943 43.9057 596.868 44.0001L596.642 44.2265C596.472 44.3774 596.358 44.4152 596.208 44.5284C595.924 44.7171 595.66 44.8491 595.396 44.9812C594.849 45.2642 594.321 45.4906 593.774 45.7359C592.679 46.2076 591.604 46.6416 590.509 47.0567C588.321 47.8869 586.113 48.6793 583.906 49.434C579.491 50.9623 575.057 52.4152 570.604 53.8491C561.717 56.6982 552.774 59.3963 543.811 62.0378C552.698 59.151 561.547 56.1699 570.377 53.151C574.792 51.6416 579.189 50.0944 583.566 48.4718C585.755 47.6605 587.924 46.8303 590.075 45.9623C591.151 45.5284 592.226 45.0755 593.264 44.6038C593.774 44.3586 594.321 44.1133 594.792 43.8491C595.038 43.7171 595.283 43.585 595.491 43.434C595.585 43.3586 595.736 43.2831 595.774 43.2265C595.792 43.2076 595.83 43.1699 595.849 43.151C595.887 43.151 595.925 43.0189 595.83 43.2831C595.83 43.3963 595.849 43.4529 595.83 43.4529C595.83 43.4906 595.849 43.5095 595.868 43.5284C595.849 43.5284 595.83 43.4906 595.811 43.4718C595.736 43.4152 595.66 43.3397 595.547 43.2642C595.34 43.1133 595.113 42.9812 594.868 42.8491C594.377 42.585 593.868 42.3397 593.34 42.0944C592.302 41.6227 591.226 41.1699 590.151 40.7359C588 39.868 585.811 39.0755 583.623 38.2831C579.245 36.717 574.811 35.2265 570.396 33.7736C561.528 30.9057 552.623 28.1133 543.679 25.4906C539.208 24.1887 534.717 22.9246 530.226 21.7359C527.981 21.151 525.717 20.585 523.472 20.0944C522.34 19.8491 521.226 19.6227 520.132 19.4718L516.679 19.0189C507.434 17.9057 498.151 17.0189 488.868 16.302C479.585 15.585 470.283 14.9812 460.962 14.6227C451.66 14.2265 442.34 13.9812 433.038 13.9246C414.434 13.9246 395.811 14.5661 377.396 17.0189C368.17 18.1888 358.981 19.6604 349.849 21.3397C340.717 23.0755 331.679 25.1888 322.717 27.6039C304.811 32.5284 287.283 38.7925 269.868 45.4529C252.453 52.1133 235.189 59.1887 217.887 66.2076L217.679 62.6605L267.264 76.4529L266.642 76.3963L322.019 71.717C340.472 70.0944 358.925 68.4152 377.358 66.6039C395.792 64.7737 414.226 63.0001 432.641 60.9623C451.075 58.9623 469.472 56.8303 487.811 54.1699ZM695.151 32.5284C683.774 30.9246 672.396 29.2076 661.019 27.4906L592.811 17.0755L558.679 12.0189C547.283 10.3586 535.868 8.90572 524.491 7.30195C501.698 4.07553 478.717 1.71704 455.66 0.811376C432.604 -0.0942842 409.472 0.47178 386.472 2.7548C363.491 5.05669 340.66 9.07555 318.321 15.0189C295.943 20.9435 274.321 29.1321 252.868 37.4152C231.415 45.7925 210.132 54.5661 188.981 63.6416L189.34 63.5284C172.906 66.7359 156.623 70.7548 140.566 75.5095C132.528 77.8491 124.585 80.4906 116.66 83.2076C108.774 86.0378 100.925 88.9435 93.1887 92.1699C77.717 98.5661 62.5661 105.755 48 114.038C40.7359 118.189 33.5849 122.566 26.6604 127.264C19.7547 131.981 12.9811 136.906 6.69813 142.51L6.39624 142.793L6.62266 143.151C8.79247 146.604 11.0755 149.943 13.3774 153.283C15.6792 156.604 18 159.925 20.3585 163.227C25.0755 169.811 29.8113 176.377 34.6038 182.925C29.9811 176.283 25.3774 169.604 20.8302 162.906L14.0378 152.83C11.7925 149.453 9.56605 146.076 7.49058 142.623L7.39623 143.245C13.6793 137.849 20.5472 133.057 27.5094 128.491C34.4906 123.943 41.6793 119.717 48.9812 115.736C63.6038 107.755 78.717 100.698 94.1887 94.5284C101.906 91.4152 109.755 88.6039 117.623 85.8869C125.528 83.2642 133.453 80.7359 141.472 78.4906C157.491 73.9435 173.717 70.1699 190.057 66.9812L190.245 66.9435L190.434 66.868C211.566 57.8869 232.868 49.2076 254.302 40.9246C275.755 32.7171 297.283 24.6605 319.434 18.9057C341.585 13.1322 364.151 8.94347 386.943 6.60384C409.736 4.26422 432.679 3.60384 455.604 4.41516C467.057 4.83025 478.509 5.58498 489.925 6.64159C501.34 7.71706 512.755 9.01894 524.151 10.4718C535.566 11.9435 546.981 13.2642 558.377 14.7925L592.547 19.4718L626.717 24.2454L660.906 28.868C672.302 30.3774 683.717 31.868 695.132 33.2831C706.547 34.6982 717.981 36.0001 729.453 36.9246C717.924 35.7925 706.528 34.1322 695.151 32.5284ZM63.7736 163.34L75 175.132L76.3019 176.509C76.3208 176.528 76.3396 176.547 76.3774 176.566L76.4151 176.585L76.434 176.604H76.4529C76.5095 176.623 76.434 176.717 76.3019 176.057C76.1887 175.547 76.6792 174.887 76.6981 174.906L76.7736 174.83C76.8113 174.793 76.9057 174.736 76.9057 174.717H76.8868L76.7359 174.793C76.4906 174.906 76.1698 175.038 75.8868 175.151C74.6604 175.642 73.3962 176.094 72.1321 176.547L64.4717 179.208C59.3396 180.943 54.1698 182.547 49 184.17C43.8302 185.755 38.6227 187.245 33.4151 188.434C32.1132 188.717 30.8113 188.962 29.566 189.113C28.9623 189.189 28.3396 189.189 27.6793 189.208C27.0377 189.226 26.3774 189.208 25.717 189.189C23.0755 189.113 20.3962 188.868 17.717 188.585C12.3774 187.962 7.01889 187.076 1.717 186.094L2.43397 187.302C2.73586 186.151 3.4151 185.038 4.22642 183.981C5.03774 182.943 6.00001 181.962 7.00001 181.113L6.8302 181.208C11.4528 179.34 16.0566 177.396 20.6415 175.434C15.8679 176.887 11.1132 178.377 6.35851 179.925L6.28303 179.943L6.18869 180.019C5.00001 180.887 3.9434 181.83 2.9434 182.906C1.98114 184 1.09435 185.227 0.584911 186.755L0.26416 187.698L1.28303 187.962C6.58492 189.321 11.9245 190.453 17.3585 191.283C20.0755 191.698 22.8113 192.038 25.6038 192.189C26.3019 192.226 27 192.264 27.717 192.245C28.3962 192.245 29.1509 192.264 29.8868 192.189C31.3396 192.057 32.717 191.811 34.0755 191.566C39.5094 190.491 44.7547 188.962 50 187.415C55.2453 185.868 60.3962 184.132 65.566 182.359C68.1321 181.453 70.717 180.566 73.2642 179.585C74.5472 179.094 75.8113 178.604 77.1132 178.057C77.434 177.906 77.7547 177.774 78.1132 177.604L78.4151 177.453L78.6227 177.321C78.6604 177.302 78.7925 177.208 78.8679 177.132L78.9811 177.019C79.0189 177.038 79.5094 176.34 79.4151 175.811C79.3019 175.132 79.2076 175.189 79.2453 175.208L79.2076 175.17L79.1509 175.094L79.0189 174.925L78.7547 174.604C78.5472 174.359 78.434 174.264 78.3208 174.132L77.9623 173.774L77.2453 173.038C73.3962 169.17 69.4717 165.415 65.566 161.642C57.717 154.132 49.7925 146.66 41.6792 139.396C48.8491 147.51 56.3019 155.434 63.7736 163.34ZM74.7547 193.283L88.8491 193.585C98.2453 193.793 107.642 194 117.038 194.113L118.66 194.132L118.189 192.491C116.623 186.943 115.66 181.076 115.057 175.264C114.472 169.434 114.302 163.566 114.566 157.717L114.849 153.34L115.283 148.981C115.679 146.113 116.132 143.283 116.925 140.491C118.434 134.925 120.585 129.509 123.434 124.491C126.358 119.509 129.679 114.774 133.679 110.604C134.642 109.528 135.755 108.623 136.792 107.623L138.377 106.151C138.906 105.679 139.509 105.264 140.075 104.811L143.491 102.189L147.151 99.9057C147.774 99.5284 148.359 99.1322 148.981 98.7737L150.925 97.8303L154.792 95.9435L158.83 94.434L160.849 93.6793C161.528 93.4718 162.245 93.302 162.943 93.1321L167.132 92.0567C168.528 91.6793 169.981 91.585 171.396 91.3208C172.83 91.1133 174.245 90.8491 175.679 90.7171L180.019 90.4906C191.566 89.8303 203.283 91.9812 213.547 97.2642C223.83 102.51 232.528 110.717 238.962 120.434C242.151 125.302 244.906 130.509 246.774 136C248.566 141.509 249.566 147.359 250.151 153.208C251.283 164.943 250.358 176.849 248.491 188.566C251.113 176.981 252.453 165.038 251.868 153.076C251.547 147.094 250.755 141.132 249.038 135.283C247.245 129.472 244.604 124 241.396 118.868C234.962 108.66 226.075 99.7548 215.226 94.0567C204.434 88.3208 191.981 85.8114 179.868 86.4906L175.321 86.6982C173.811 86.8303 172.302 87.1133 170.792 87.3208C169.283 87.585 167.755 87.6793 166.283 88.0755L161.849 89.2076C161.113 89.3963 160.359 89.5661 159.642 89.7925L157.491 90.585L153.189 92.1699C151.792 92.8114 150.434 93.5095 149.057 94.1887L147 95.2076C146.34 95.585 145.698 96.019 145.038 96.4152L141.151 98.868L137.528 101.679C136.925 102.151 136.302 102.604 135.736 103.113L134.057 104.679C132.962 105.755 131.774 106.736 130.774 107.868L127.736 111.302C126.698 112.434 125.887 113.717 124.943 114.925L123.585 116.755C123.151 117.396 122.774 118.038 122.359 118.698C121.585 120 120.717 121.264 120.019 122.623C117.075 127.962 114.887 133.698 113.377 139.604C112.585 142.547 112.132 145.604 111.774 148.604C111.642 150.113 111.491 151.604 111.396 153.113L111.208 157.623C111.057 163.642 111.377 169.66 112.113 175.623C112.849 181.604 114 187.472 115.849 193.302L117.019 191.698C107.623 191.83 98.2264 192.019 88.8302 192.226L74.7359 192.528L60.6415 192.906L74.7547 193.283ZM71.0377 109.264C66.1321 111.472 61.3396 113.868 56.5849 116.359C51.8113 118.83 47.151 121.472 42.5094 124.17C40.1887 125.509 37.8868 126.906 35.6038 128.302C33.3019 129.736 31.0755 131.076 28.7359 132.679L23.8302 136.019L29.7547 135.113L46.3774 132.585C51.9057 131.679 57.4528 130.83 62.9623 129.868C68.4906 128.943 74 127.943 79.5094 126.943L87.7736 125.321C90.5283 124.774 93.283 124.245 96 123.528C90.4529 124.283 84.8868 124.925 79.3207 125.585L62.6415 127.717L45.9811 129.981L29.3585 132.396L30.3774 134.849C34.6415 131.943 39.3208 129.132 43.8302 126.34C48.3774 123.547 52.9811 120.849 57.6226 118.17C62.2641 115.528 66.9057 112.887 71.6415 110.415C76.3396 107.887 81.1509 105.547 86.0189 103.302C80.9057 105.019 75.9623 107.113 71.0377 109.264ZM270.038 64.5661L270.076 65.5095C274.604 62.0755 279.453 58.7925 284.585 56.7359C285.868 56.302 287.151 55.868 288.453 55.8302C289.076 55.7359 289.811 55.7737 290.509 55.7548C291.208 55.7359 291.906 55.7548 292.623 55.7925C295.453 55.868 298.34 56.0944 301.208 56.2642L318.453 57.6227C324.208 58.0755 329.981 58.5095 335.774 58.7548C330.113 57.4906 324.396 56.5095 318.679 55.6227C315.811 55.1887 312.943 54.7925 310.075 54.4529C307.208 54.0944 304.321 53.7925 301.415 53.5661C298.509 53.3208 295.623 53.1133 292.679 53.0756C291.943 53.0567 291.208 53.0378 290.453 53.0756C289.698 53.1133 288.981 53.0755 288.17 53.1888C286.566 53.302 285.075 53.868 283.66 54.4152C280.868 55.6038 278.358 57.1887 275.981 58.9246C273.604 60.6604 271.377 62.5284 269.264 64.5661L268.698 65.1133L269.302 65.5095C271.717 67.1321 274.151 68.7359 276.642 70.2642C274.472 68.3397 272.264 66.434 270.038 64.5661ZM455.849 25.5472C456.943 28.5284 458.094 31.4718 459.245 34.434L462.736 43.2642C463.321 44.7359 463.906 46.2076 464.453 47.6982C465.038 49.1699 465.547 50.6604 466.057 52.1699C465.623 49.0001 464.679 45.9435 463.736 42.9057C462.774 39.868 461.66 36.8869 460.528 33.9246C459.358 30.9812 458.151 28.0378 456.83 25.1322C455.528 22.2265 454.17 19.3586 452.66 16.5472C453.642 19.6038 454.736 22.585 455.849 25.5472Z" fill="url(#paint0_linear_62_2)"/>
<path d="M268.698 230.415C246.321 230.962 223.944 231.226 201.585 231.434L134.472 231.736L67.3586 231.434L33.7926 231.057L0.226562 230.396L33.7926 229.736L67.3586 229.359L134.472 229.057L201.585 229.359C223.962 229.604 246.321 229.868 268.698 230.415Z" fill="url(#paint1_linear_62_2)"/>
<path d="M278.894 123.513H293.102L302.318 193.017H302.574L311.79 123.513H324.718L311.15 213.113H292.462L278.894 123.513ZM331.481 123.513H369.881V136.313H345.561V159.993H364.889V172.793H345.561V200.313H369.881V213.113H331.481V123.513ZM397.949 214.393C391.123 214.393 385.917 212.473 382.333 208.633C378.749 204.708 376.957 199.119 376.957 191.865V144.761C376.957 137.508 378.749 131.961 382.333 128.121C385.917 124.196 391.123 122.233 397.949 122.233C404.776 122.233 409.981 124.196 413.565 128.121C417.149 131.961 418.941 137.508 418.941 144.761V152.441H405.629V143.865C405.629 137.977 403.197 135.033 398.333 135.033C393.469 135.033 391.037 137.977 391.037 143.865V192.889C391.037 198.692 393.469 201.593 398.333 201.593C403.197 201.593 405.629 198.692 405.629 192.889V175.353H398.589V162.553H418.941V191.865C418.941 199.119 417.149 204.708 413.565 208.633C409.981 212.473 404.776 214.393 397.949 214.393ZM438.861 123.513H457.933L472.525 213.113H458.445L455.885 195.321V195.577H439.885L437.325 213.113H424.269L438.861 123.513ZM454.221 183.417L447.949 139.129H447.693L441.549 183.417H454.221ZM479.356 123.513H499.452L508.412 187.641H508.668L517.628 123.513H537.724V213.113H524.412V145.273H524.156L513.916 213.113H502.14L491.9 145.273H491.644V213.113H479.356V123.513ZM568.583 214.393C561.671 214.393 556.381 212.431 552.711 208.505C549.042 204.58 547.207 199.033 547.207 191.865V144.761C547.207 137.593 549.042 132.047 552.711 128.121C556.381 124.196 561.671 122.233 568.583 122.233C575.495 122.233 580.786 124.196 584.455 128.121C588.125 132.047 589.959 137.593 589.959 144.761V191.865C589.959 199.033 588.125 204.58 584.455 208.505C580.786 212.431 575.495 214.393 568.583 214.393ZM568.583 201.593C573.447 201.593 575.879 198.649 575.879 192.761V143.865C575.879 137.977 573.447 135.033 568.583 135.033C563.719 135.033 561.287 137.977 561.287 143.865V192.761C561.287 198.649 563.719 201.593 568.583 201.593ZM609.989 136.313H595.269V123.513H638.789V136.313H624.069V213.113H609.989V136.313ZM665.458 214.393C658.546 214.393 653.256 212.431 649.586 208.505C645.917 204.58 644.082 199.033 644.082 191.865V144.761C644.082 137.593 645.917 132.047 649.586 128.121C653.256 124.196 658.546 122.233 665.458 122.233C672.37 122.233 677.661 124.196 681.33 128.121C685 132.047 686.834 137.593 686.834 144.761V191.865C686.834 199.033 685 204.58 681.33 208.505C677.661 212.431 672.37 214.393 665.458 214.393ZM665.458 201.593C670.322 201.593 672.754 198.649 672.754 192.761V143.865C672.754 137.977 670.322 135.033 665.458 135.033C660.594 135.033 658.162 137.977 658.162 143.865V192.761C658.162 198.649 660.594 201.593 665.458 201.593ZM696.356 123.513H717.22C724.474 123.513 729.764 125.22 733.092 128.633C736.42 131.961 738.084 137.124 738.084 144.121V149.625C738.084 158.927 735.012 164.815 728.868 167.289V167.545C732.282 168.569 734.671 170.66 736.036 173.817C737.487 176.975 738.212 181.199 738.212 186.489V202.233C738.212 204.793 738.298 206.884 738.468 208.505C738.639 210.041 739.066 211.577 739.748 213.113H725.412C724.9 211.663 724.559 210.297 724.388 209.017C724.218 207.737 724.132 205.433 724.132 202.105V185.721C724.132 181.625 723.45 178.767 722.084 177.145C720.804 175.524 718.543 174.713 715.3 174.713H710.436V213.113H696.356V123.513ZM715.556 161.913C718.372 161.913 720.463 161.188 721.828 159.737C723.279 158.287 724.004 155.855 724.004 152.441V145.529C724.004 142.287 723.407 139.94 722.212 138.489C721.103 137.039 719.311 136.313 716.836 136.313H710.436V161.913H715.556Z" fill="url(#paint2_linear_62_2)"/>
</g>
<defs>
<linearGradient id="paint0_linear_62_2" x1="0.264166" y1="47.1631" x2="735.273" y2="105.134" gradientUnits="userSpaceOnUse">
<stop stop-color="#54A0E7"/>
<stop offset="1" stop-color="#384287"/>
</linearGradient>
<linearGradient id="paint1_linear_62_2" x1="0.226565" y1="229.703" x2="50.5702" y2="335.411" gradientUnits="userSpaceOnUse">
<stop stop-color="#54A0E7"/>
<stop offset="1" stop-color="#384287"/>
</linearGradient>
<linearGradient id="paint2_linear_62_2" x1="277.358" y1="135.286" x2="748.107" y2="165.135" gradientUnits="userSpaceOnUse">
<stop stop-color="#54A0E7"/>
<stop offset="1" stop-color="#384287"/>
</linearGradient>
<clipPath id="clip0_62_2">
<rect width="800" height="232.075" fill="white"/>
</clipPath>
</defs>
</svg>
